<svg xmlns="http://www.w3.org/2000/svg" width="1000" height="500" viewBox="0 0 1000 500">
<rect width="100%" height="100%" fill="white" />
<line x1="80" y1="440" x2="970" y2="440" stroke="#dddddd" stroke-width="1" />
<text x="70" y="445" text-anchor="end" font-family="Arial" font-size="12">20</text>
<line x1="80" y1="360" x2="970" y2="360" stroke="#dddddd" stroke-width="1" />
<text x="70" y="365" text-anchor="end" font-family="Arial" font-size="12">40</text>
<line x1="80" y1="280" x2="970" y2="280" stroke="#dddddd" stroke-width="1" />
<text x="70" y="285" text-anchor="end" font-family="Arial" font-size="12">60</text>
<line x1="80" y1="200" x2="970" y2="200" stroke="#dddddd" stroke-width="1" />
<text x="70" y="205" text-anchor="end" font-family="Arial" font-size="12">80</text>
<line x1="80" y1="120" x2="970" y2="120" stroke="#dddddd" stroke-width="1" />
<text x="70" y="125" text-anchor="end" font-family="Arial" font-size="12">100</text>
<line x1="80" y1="40" x2="970" y2="40" stroke="#dddddd" stroke-width="1" />
<text x="70" y="45" text-anchor="end" font-family="Arial" font-size="12">120</text>
<line x1="80" y1="40" x2="80" y2="440" stroke="#eeeeee" stroke-width="1" />
<text x="80" y="460" text-anchor="middle" font-family="Arial" font-size="12">0</text>
<line x1="251.022" y1="40" x2="251.022" y2="440" stroke="#eeeeee" stroke-width="1" />
<text x="251.022" y="460" text-anchor="middle" font-family="Arial" font-size="12">5</text>
<line x1="422.045" y1="40" x2="422.045" y2="440" stroke="#eeeeee" stroke-width="1" />
<text x="422.045" y="460" text-anchor="middle" font-family="Arial" font-size="12">10</text>
<line x1="593.067" y1="40" x2="593.067" y2="440" stroke="#eeeeee" stroke-width="1" />
<text x="593.067" y="460" text-anchor="middle" font-family="Arial" font-size="12">15</text>
<line x1="764.089" y1="40" x2="764.089" y2="440" stroke="#eeeeee" stroke-width="1" />
<text x="764.089" y="460" text-anchor="middle" font-family="Arial" font-size="12">20</text>
<line x1="935.111" y1="40" x2="935.111" y2="440" stroke="#eeeeee" stroke-width="1" />
<text x="935.111" y="460" text-anchor="middle" font-family="Arial" font-size="12">25</text>
<line x1="80" y1="40" x2="80" y2="440" stroke="black" stroke-width="1.2" />
<line x1="80" y1="440" x2="970" y2="440" stroke="black" stroke-width="1.2" />
<text x="500" y="25" text-anchor="middle" font-family="Arial" font-size="20">Elbow Position Tracking</text>
<text x="20" y="250" text-anchor="middle" font-family="Arial" font-size="14" transform="rotate(-90 20 250)">Angle [deg]</text>
<text x="500" y="490" text-anchor="middle" font-family="Arial" font-size="14">Time [s]</text>
<polyline fill="none" stroke="#d95f02" stroke-width="2" points="80,398.4 80.342,396.8 80.6841,395.2 81.0261,393.6 81.3682,392 81.7102,390.4 82.0523,388.8 82.3943,387.2 82.7364,385.6 83.0784,384 83.4204,382.4 83.7625,380.8 84.1045,379.2 84.4466,377.6 84.7886,376 85.1307,374.4 85.4727,372.8 85.8148,371.2 86.1568,369.6 86.4988,368 86.8409,366.4 87.1829,364.8 87.525,363.2 87.867,361.6 88.2091,360 88.5511,358.4 88.8932,356.8 89.2352,355.2 89.5772,353.6 89.9193,352 90.2613,350.4 90.6034,348.8 90.9454,347.2 91.2875,345.6 91.6295,344 91.9716,342.4 92.3136,340.8 92.6556,339.2 92.9977,337.6 93.3397,336 93.6818,334.4 94.0238,332.8 94.3659,331.2 94.7079,329.6 95.05,328 95.392,326.4 95.7341,324.8 96.0761,323.2 96.4181,321.6 96.7602,320 97.1022,318.4 97.4443,316.8 97.7863,315.2 98.1284,313.6 98.4704,312 98.8125,310.4 99.1545,308.8 99.4965,307.2 99.8386,305.6 100.181,304 100.523,302.4 100.865,300.8 101.207,299.2 101.549,297.6 101.891,296 102.233,294.4 102.575,292.8 102.917,291.2 103.259,289.6 103.601,288 103.943,286.4 104.285,284.8 104.627,283.2 104.969,281.6 105.311,280 105.653,278.4 105.995,276.8 106.337,275.2 106.679,273.6 107.022,272 107.364,270.4 107.706,268.8 108.048,267.2 108.39,265.6 108.732,264 109.074,262.4 109.416,260.8 109.758,259.2 110.1,257.6 110.442,256 110.784,254.4 111.126,252.8 111.468,251.2 111.81,249.6 112.152,248 112.494,246.4 112.836,244.8 113.178,243.2 113.52,241.6 113.862,240 114.204,238.4 114.547,236.8 114.889,235.2 115.231,233.6 115.573,232 115.915,230.4 116.257,228.8 116.599,227.2 116.941,225.6 117.283,224 117.625,222.4 117.967,220.8 118.309,219.2 118.651,217.6 118.993,216 119.335,214.4 119.677,212.8 120.019,211.2 120.361,209.6 120.703,208 121.045,206.4 121.387,204.8 121.729,203.2 122.071,201.6 122.414,200 122.756,198.4 123.098,196.8 123.44,195.2 123.782,193.6 124.124,192 124.466,190.4 124.808,188.8 125.15,187.2 125.492,185.6 125.834,184 126.176,182.4 126.518,180.8 126.86,179.2 127.202,177.6 127.544,176 127.886,174.4 128.228,172.8 128.57,171.2 128.912,169.6 129.254,168 129.596,166.4 129.939,164.8 130.281,163.2 130.623,161.6 130.965,160 131.307,158.4 131.649,156.8 131.991,155.2 132.333,153.6 132.675,152 133.017,150.4 133.359,148.8 133.701,147.2 134.043,145.6 134.385,144 134.727,142.4 135.069,140.8 135.411,139.2 135.753,137.6 136.095,136 136.437,134.4 136.779,132.8 137.121,131.2 137.463,129.6 137.806,128 138.148,126.4 138.49,124.8 138.832,123.2 139.174,121.6 139.516,120 139.858,118.4 140.2,116.8 140.542,115.2 140.884,113.6 141.226,112 141.568,110.4 141.91,108.8 142.252,107.2 142.594,105.6 142.936,104 143.278,102.4 143.62,100.8 143.962,99.2 144.304,97.6 144.646,96 144.988,94.4 145.331,92.8 145.673,91.2 146.015,89.6 146.357,88 146.699,86.4 147.041,84.8 147.383,83.2 147.725,81.6 148.067,80 148.409,80 148.751,80 149.093,80 149.435,80 149.777,80 150.119,80 150.461,80 150.803,80 151.145,80 151.487,80 151.829,80 152.171,80 152.513,80 152.855,80 153.198,80 153.54,80 153.882,80 154.224,80 154.566,80 154.908,80 155.25,80 155.592,80 155.934,80 156.276,80 156.618,80 156.96,80 157.302,80 157.644,80 157.986,80 158.328,80 158.67,80 159.012,80 159.354,80 159.696,80 160.038,80 160.38,80 160.723,80 161.065,80 161.407,80 161.749,80 162.091,80 162.433,80 162.775,80 163.117,80 163.459,80 163.801,80 164.143,80 164.485,80 164.827,80 165.169,80 165.511,80 165.853,80 166.195,80 166.537,80 166.879,80 167.221,80 167.563,80 167.905,80 168.248,80 168.59,80 168.932,80 169.274,80 169.616,80 169.958,80 170.3,80 170.642,80 170.984,80 171.326,80 171.668,80 172.01,80 172.352,80 172.694,80 173.036,80 173.378,80 173.72,80 174.062,80 174.404,80 174.746,80 175.088,80 175.43,80 175.772,80 176.115,80 176.457,80 176.799,80 177.141,80 177.483,80 177.825,80 178.167,80 178.509,80 178.851,80 179.193,80 179.535,80 179.877,80 180.219,80 180.561,80 180.903,80 181.245,80 181.587,80 181.929,80 182.271,80 182.613,80 182.955,80 183.297,80 183.64,80 183.982,80 184.324,80 184.666,80 185.008,80 185.35,80 185.692,80 186.034,80 186.376,80 186.718,80 187.06,80 187.402,80 187.744,80 188.086,80 188.428,80 188.77,80 189.112,80 189.454,80 189.796,80 190.138,80 190.48,80 190.822,80 191.164,80 191.507,80 191.849,80 192.191,80 192.533,80 192.875,80 193.217,80 193.559,80 193.901,80 194.243,80 194.585,80 194.927,80 195.269,80 195.611,80 195.953,80 196.295,80 196.637,80 196.979,80 197.321,80 197.663,80 198.005,80 198.347,80 198.689,80 199.032,80 199.374,80 199.716,80 200.058,80 200.4,80 200.742,80 201.084,80 201.426,80 201.768,80 202.11,80 202.452,80 202.794,80 203.136,80 203.478,80 203.82,80 204.162,80 204.504,80 204.846,80 205.188,80 205.53,80 205.872,80 206.214,80 206.556,80 206.899,80 207.241,80 207.583,80 207.925,80 208.267,80 208.609,80 208.951,80 209.293,80 209.635,80 209.977,80 210.319,80 210.661,80 211.003,80 211.345,80 211.687,80 212.029,80 212.371,80 212.713,80 213.055,80 213.397,80 213.739,80 214.081,80 214.424,80 214.766,80 215.108,80 215.45,80 215.792,80 216.134,80 216.476,80 216.818,80 217.16,80 217.502,80 217.844,80 218.186,80 218.528,80 218.87,80 219.212,80 219.554,80 219.896,80 220.238,80 220.58,80 220.922,80 221.264,80 221.606,80 221.949,80 222.291,80 222.633,80 222.975,80 223.317,80 223.659,80 224.001,80 224.343,80 224.685,80 225.027,80 225.369,80 225.711,80 226.053,80 226.395,80 226.737,80 227.079,80 227.421,80 227.763,80 228.105,80 228.447,80 228.789,80 229.131,80 229.473,80 229.816,80 230.158,80 230.5,80 230.842,80 231.184,80 231.526,80 231.868,80 232.21,80 232.552,80 232.894,80 233.236,80 233.578,80 233.92,80 234.262,80 234.604,80 234.946,80 235.288,80 235.63,80 235.972,80 236.314,80 236.656,80 236.998,80 237.341,80 237.683,80 238.025,80 238.367,80 238.709,80 239.051,80 239.393,80 239.735,80 240.077,80 240.419,80 240.761,80 241.103,80 241.445,80 241.787,80 242.129,80 242.471,80 242.813,80 243.155,80 243.497,80 243.839,80 244.181,80 244.523,80 244.865,80 245.208,80 245.55,80 245.892,80 246.234,80 246.576,80 246.918,80 247.26,80 247.602,80 247.944,80 248.286,80 248.628,80 248.97,80 249.312,80 249.654,80 249.996,80 250.338,80 250.68,80 251.022,80 251.364,80 251.706,80 252.048,80 252.39,80 252.733,80 253.075,80 253.417,80 253.759,80 254.101,80 254.443,80 254.785,80 255.127,80 255.469,80 255.811,80 256.153,80 256.495,80 256.837,80 257.179,80 257.521,80 257.863,80 258.205,80 258.547,80 258.889,80 259.231,80 259.573,80 259.915,80 260.257,80 260.6,80 260.942,80 261.284,80 261.626,80 261.968,80 262.31,80 262.652,81.6 262.994,83.2 263.336,84.8 263.678,86.4 264.02,88 264.362,89.6 264.704,91.2 265.046,92.8 265.388,94.4 265.73,96 266.072,97.6 266.414,99.2 266.756,100.8 267.098,102.4 267.44,104 267.782,105.6 268.125,107.2 268.467,108.8 268.809,110.4 269.151,112 269.493,113.6 269.835,115.2 270.177,116.8 270.519,118.4 270.861,120 271.203,121.6 271.545,123.2 271.887,124.8 272.229,126.4 272.571,128 272.913,129.6 273.255,131.2 273.597,132.8 273.939,134.4 274.281,136 274.623,137.6 274.965,139.2 275.307,140.8 275.65,142.4 275.992,144 276.334,145.6 276.676,147.2 277.018,148.8 277.36,150.4 277.702,152 278.044,153.6 278.386,155.2 278.728,156.8 279.07,158.4 279.412,160 279.754,161.6 280.096,163.2 280.438,164.8 280.78,166.4 281.122,168 281.464,169.6 281.806,171.2 282.148,172.8 282.49,174.4 282.832,176 283.174,177.6 283.517,179.2 283.859,180.8 284.201,182.4 284.543,184 284.885,185.6 285.227,187.2 285.569,188.8 285.911,190.4 286.253,192 286.595,193.6 286.937,195.2 287.279,196.8 287.621,198.4 287.963,200 288.305,201.6 288.647,203.2 288.989,204.8 289.331,206.4 289.673,208 290.015,209.6 290.357,211.2 290.699,212.8 291.042,214.4 291.384,216 291.726,217.6 292.068,219.2 292.41,220.8 292.752,222.4 293.094,224 293.436,225.6 293.778,227.2 294.12,228.8 294.462,230.4 294.804,232 295.146,233.6 295.488,235.2 295.83,236.8 296.172,238.4 296.514,240 296.856,241.6 297.198,243.2 297.54,244.8 297.882,246.4 298.224,248 298.566,249.6 298.909,251.2 299.251,252.8 299.593,254.4 299.935,256 300.277,257.6 300.619,259.2 300.961,260.8 301.303,262.4 301.645,264 301.987,265.6 302.329,267.2 302.671,268.8 303.013,270.4 303.355,272 303.697,273.6 304.039,275.2 304.381,276.8 304.723,278.4 305.065,280 305.407,281.6 305.749,283.2 306.091,284.8 306.434,286.4 306.776,288 307.118,289.6 307.46,291.2 307.802,292.8 308.144,294.4 308.486,296 308.828,297.6 309.17,299.2 309.512,300.8 309.854,302.4 310.196,304 310.538,305.6 310.88,307.2 311.222,308.8 311.564,310.4 311.906,312 312.248,313.6 312.59,315.2 312.932,316.8 313.274,318.4 313.616,320 313.958,321.6 314.301,323.2 314.643,324.8 314.985,326.4 315.327,328 315.669,329.6 316.011,331.2 316.353,332.8 316.695,334.4 317.037,336 317.379,337.6 317.721,339.2 318.063,340.8 318.405,342.4 318.747,344 319.089,345.6 319.431,347.2 319.773,348.8 320.115,350.4 320.457,352 320.799,353.6 321.141,355.2 321.483,356.8 321.826,358.4 322.168,360 322.51,361.6 322.852,363.2 323.194,364.8 323.536,366.4 323.878,368 324.22,369.6 324.562,371.2 324.904,372.8 325.246,374.4 325.588,376 325.93,377.6 326.272,379.2 326.614,380.8 326.956,382.4 327.298,384 327.64,385.6 327.982,387.2 328.324,388.8 328.666,390.4 329.008,392 329.35,393.6 329.693,395.2 330.035,396.8 330.377,398.4 330.719,400 331.061,400 331.403,400 331.745,400 332.087,400 332.429,400 332.771,400 333.113,400 333.455,400 333.797,400 334.139,400 334.481,400 334.823,400 335.165,400 335.507,400 335.849,400 336.191,400 336.533,400 336.875,400 337.218,400 337.56,400 337.902,400 338.244,400 338.586,400 338.928,400 339.27,400 339.612,400 339.954,400 340.296,400 340.638,400 340.98,400 341.322,400 341.664,400 342.006,400 342.348,400 342.69,400 343.032,400 343.374,400 343.716,400 344.058,400 344.4,400 344.743,400 345.085,400 345.427,400 345.769,400 346.111,400 346.453,400 346.795,400 347.137,400 347.479,400 347.821,400 348.163,400 348.505,400 348.847,400 349.189,400 349.531,400 349.873,400 350.215,400 350.557,400 350.899,400 351.241,400 351.583,400 351.925,400 352.267,400 352.61,400 352.952,400 353.294,400 353.636,400 353.978,400 354.32,400 354.662,400 355.004,400 355.346,400 355.688,400 356.03,400 356.372,400 356.714,400 357.056,400 357.398,400 357.74,400 358.082,400 358.424,400 358.766,400 359.108,400 359.45,400 359.792,400 360.135,400 360.477,400 360.819,400 361.161,400 361.503,400 361.845,400 362.187,400 362.529,400 362.871,400 363.213,400 363.555,400 363.897,400 364.239,400 364.581,400 364.923,400 365.265,400 365.607,400 365.949,400 366.291,400 366.633,400 366.975,400 367.317,400 367.659,400 368.002,400 368.344,400 368.686,400 369.028,400 369.37,400 369.712,400 370.054,400 370.396,400 370.738,400 371.08,400 371.422,400 371.764,400 372.106,400 372.448,400 372.79,400 373.132,400 373.474,400 373.816,400 374.158,400 374.5,400 374.842,400 375.184,400 375.527,400 375.869,400 376.211,400 376.553,400 376.895,398.4 377.237,396.8 377.579,395.2 377.921,393.6 378.263,392 378.605,390.4 378.947,388.8 379.289,387.2 379.631,385.6 379.973,384 380.315,382.4 380.657,380.8 380.999,379.2 381.341,377.6 381.683,376 382.025,374.4 382.367,372.8 382.709,371.2 383.051,369.6 383.394,368 383.736,366.4 384.078,364.8 384.42,363.2 384.762,361.6 385.104,360 385.446,358.4 385.788,356.8 386.13,355.2 386.472,353.6 386.814,352 387.156,350.4 387.498,348.8 387.84,347.2 388.182,345.6 388.524,344 388.866,342.4 389.208,340.8 389.55,339.2 389.892,337.6 390.234,336 390.576,334.4 390.919,332.8 391.261,331.2 391.603,329.6 391.945,328 392.287,326.4 392.629,324.8 392.971,323.2 393.313,321.6 393.655,320 393.997,318.4 394.339,316.8 394.681,315.2 395.023,313.6 395.365,312 395.707,310.4 396.049,308.8 396.391,307.2 396.733,305.6 397.075,304 397.417,302.4 397.759,300.8 398.101,299.2 398.444,297.6 398.786,296 399.128,294.4 399.47,292.8 399.812,291.2 400.154,289.6 400.496,288 400.838,286.4 401.18,284.8 401.522,283.2 401.864,281.6 402.206,280 402.548,278.4 402.89,276.8 403.232,275.2 403.574,273.6 403.916,272 404.258,270.4 404.6,268.8 404.942,267.2 405.284,265.6 405.626,264 405.968,262.4 406.311,260.8 406.653,259.2 406.995,257.6 407.337,256 407.679,254.4 408.021,252.8 408.363,251.2 408.705,249.6 409.047,248 409.389,246.4 409.731,244.8 410.073,243.2 410.415,241.6 410.757,240 411.099,238.4 411.441,236.8 411.783,235.2 412.125,233.6 412.467,232 412.809,230.4 413.151,228.8 413.493,227.2 413.836,225.6 414.178,224 414.52,222.4 414.862,220.8 415.204,219.2 415.546,217.6 415.888,216 416.23,214.4 416.572,212.8 416.914,211.2 417.256,209.6 417.598,208 417.94,206.4 418.282,204.8 418.624,203.2 418.966,201.6 419.308,200 419.65,198.4 419.992,196.8 420.334,195.2 420.676,193.6 421.018,192 421.36,190.4 421.703,188.8 422.045,187.2 422.387,185.6 422.729,184 423.071,182.4 423.413,180.8 423.755,179.2 424.097,177.6 424.439,176 424.781,174.4 425.123,172.8 425.465,171.2 425.807,169.6 426.149,168 426.491,166.4 426.833,164.8 427.175,163.2 427.517,161.6 427.859,160 428.201,158.4 428.543,156.8 428.885,155.2 429.228,153.6 429.57,152 429.912,150.4 430.254,148.8 430.596,147.2 430.938,145.6 431.28,144 431.622,142.4 431.964,140.8 432.306,139.2 432.648,137.6 432.99,136 433.332,134.4 433.674,132.8 434.016,131.2 434.358,129.6 434.7,128 435.042,126.4 435.384,124.8 435.726,123.2 436.068,121.6 436.41,120 436.752,118.4 437.095,116.8 437.437,115.2 437.779,113.6 438.121,112 438.463,110.4 438.805,108.8 439.147,107.2 439.489,105.6 439.831,104 440.173,102.4 440.515,100.8 440.857,99.2 441.199,97.6 441.541,96 441.883,94.4 442.225,92.8 442.567,91.2 442.909,89.6 443.251,88 443.593,86.4 443.935,84.8 444.277,83.2 444.62,81.6 444.962,80 445.304,80 445.646,80 445.988,80 446.33,80 446.672,80 447.014,80 447.356,80 447.698,80 448.04,80 448.382,80 448.724,80 449.066,80 449.408,80 449.75,80 450.092,80 450.434,80 450.776,80 451.118,80 451.46,80 451.802,80 452.145,80 452.487,80 452.829,80 453.171,80 453.513,80 453.855,80 454.197,80 454.539,80 454.881,80 455.223,80 455.565,80 455.907,80 456.249,80 456.591,80 456.933,80 457.275,80 457.617,80 457.959,80 458.301,80 458.643,80 458.985,80 459.327,80 459.669,80 460.012,80 460.354,80 460.696,80 461.038,80 461.38,80 461.722,80 462.064,80 462.406,80 462.748,80 463.09,80 463.432,80 463.774,80 464.116,80 464.458,80 464.8,80 465.142,80 465.484,80 465.826,80 466.168,80 466.51,80 466.852,80 467.194,80 467.537,80 467.879,80 468.221,80 468.563,80 468.905,80 469.247,80 469.589,80 469.931,80 470.273,80 470.615,80 470.957,80 471.299,80 471.641,80 471.983,80 472.325,80 472.667,80 473.009,80 473.351,80 473.693,80 474.035,80 474.377,80 474.719,80 475.061,80 475.404,80 475.746,80 476.088,80 476.43,80 476.772,80 477.114,80 477.456,80 477.798,80 478.14,80 478.482,80 478.824,80 479.166,80 479.508,80 479.85,80 480.192,80 480.534,80 480.876,80 481.218,80 481.56,80 481.902,80 482.244,80 482.586,80 482.929,80 483.271,80 483.613,80 483.955,80 484.297,80 484.639,80 484.981,80 485.323,80 485.665,80 486.007,80 486.349,80 486.691,80 487.033,80 487.375,80 487.717,80 488.059,80 488.401,80 488.743,80 489.085,80 489.427,80 489.769,80 490.111,80 490.453,80 490.796,80 491.138,80 491.48,80 491.822,80 492.164,80 492.506,80 492.848,80 493.19,80 493.532,80 493.874,80 494.216,80 494.558,80 494.9,80 495.242,80 495.584,80 495.926,80 496.268,80 496.61,80 496.952,80 497.294,80 497.636,80 497.978,80 498.321,80 498.663,80 499.005,80 499.347,80 499.689,80 500.031,80 500.373,80 500.715,80 501.057,80 501.399,80 501.741,80 502.083,80 502.425,80 502.767,80 503.109,80 503.451,80 503.793,80 504.135,80 504.477,80 504.819,80 505.161,80 505.503,80 505.846,80 506.188,80 506.53,80 506.872,80 507.214,80 507.556,80 507.898,80 508.24,80 508.582,80 508.924,80 509.266,80 509.608,80 509.95,80 510.292,80 510.634,80 510.976,80 511.318,80 511.66,80 512.002,80 512.344,80 512.686,80 513.028,80 513.37,80 513.713,80 514.055,80 514.397,80 514.739,80 515.081,80 515.423,80 515.765,80 516.107,80 516.449,80 516.791,80 517.133,80 517.475,80 517.817,80 518.159,80 518.501,80 518.843,80 519.185,80 519.527,80 519.869,80 520.211,80 520.553,80 520.895,80 521.238,80 521.58,80 521.922,80 522.264,80 522.606,80 522.948,80 523.29,80 523.632,80 523.974,80 524.316,80 524.658,80 525,80 525.342,80 525.684,80 526.026,80 526.368,80 526.71,80 527.052,80 527.394,80 527.736,80 528.078,80 528.42,80 528.762,80 529.105,80 529.447,80 529.789,80 530.131,80 530.473,80 530.815,80 531.157,80 531.499,80 531.841,80 532.183,80 532.525,80 532.867,80 533.209,80 533.551,80 533.893,80 534.235,80 534.577,80 534.919,80 535.261,80 535.603,80 535.945,80 536.287,80 536.63,80 536.972,80 537.314,80 537.656,80 537.998,80 538.34,80 538.682,80 539.024,80 539.366,80 539.708,80 540.05,80 540.392,80 540.734,80 541.076,80 541.418,80 541.76,80 542.102,80 542.444,80 542.786,80 543.128,80 543.47,80 543.812,80 544.154,80 544.497,80 544.839,80 545.181,80 545.523,80 545.865,80 546.207,80 546.549,80 546.891,80 547.233,80 547.575,80 547.917,80 548.259,80 548.601,80 548.943,80 549.285,80 549.627,80 549.969,80 550.311,80 550.653,80 550.995,80 551.337,80 551.679,80 552.022,80 552.364,80 552.706,80 553.048,80 553.39,80 553.732,80 554.074,80 554.416,80 554.758,80 555.1,80 555.442,80 555.784,80 556.126,80 556.468,80 556.81,80 557.152,80 557.494,80 557.836,80 558.178,80 558.52,80 558.862,80 559.204,80 559.547,81.6 559.889,83.2 560.231,84.8 560.573,86.4 560.915,88 561.257,89.6 561.599,91.2 561.941,92.8 562.283,94.4 562.625,96 562.967,97.6 563.309,99.2 563.651,100.8 563.993,102.4 564.335,104 564.677,105.6 565.019,107.2 565.361,108.8 565.703,110.4 566.045,112 566.387,113.6 566.729,115.2 567.071,116.8 567.414,118.4 567.756,120 568.098,121.6 568.44,123.2 568.782,124.8 569.124,126.4 569.466,128 569.808,129.6 570.15,131.2 570.492,132.8 570.834,134.4 571.176,136 571.518,137.6 571.86,139.2 572.202,140.8 572.544,142.4 572.886,144 573.228,145.6 573.57,147.2 573.912,148.8 574.254,150.4 574.596,152 574.939,153.6 575.281,155.2 575.623,156.8 575.965,158.4 576.307,160 576.649,161.6 576.991,163.2 577.333,164.8 577.675,166.4 578.017,168 578.359,169.6 578.701,171.2 579.043,172.8 579.385,174.4 579.727,176 580.069,177.6 580.411,179.2 580.753,180.8 581.095,182.4 581.437,184 581.779,185.6 582.121,187.2 582.463,188.8 582.806,190.4 583.148,192 583.49,193.6 583.832,195.2 584.174,196.8 584.516,198.4 584.858,200 585.2,201.6 585.542,203.2 585.884,204.8 586.226,206.4 586.568,208 586.91,209.6 587.252,211.2 587.594,212.8 587.936,214.4 588.278,216 588.62,217.6 588.962,219.2 589.304,220.8 589.646,222.4 589.988,224 590.331,225.6 590.673,227.2 591.015,228.8 591.357,230.4 591.699,232 592.041,233.6 592.383,235.2 592.725,236.8 593.067,238.4 593.409,240 593.751,241.6 594.093,243.2 594.435,244.8 594.777,246.4 595.119,248 595.461,249.6 595.803,251.2 596.145,252.8 596.487,254.4 596.829,256 597.171,257.6 597.513,259.2 597.855,260.8 598.198,262.4 598.54,264 598.882,265.6 599.224,267.2 599.566,268.8 599.908,270.4 600.25,272 600.592,273.6 600.934,275.2 601.276,276.8 601.618,278.4 601.96,280 602.302,281.6 602.644,283.2 602.986,284.8 603.328,286.4 603.67,288 604.012,289.6 604.354,291.2 604.696,292.8 605.038,294.4 605.38,296 605.723,297.6 606.065,299.2 606.407,300.8 606.749,302.4 607.091,304 607.433,305.6 607.775,307.2 608.117,308.8 608.459,310.4 608.801,312 609.143,313.6 609.485,315.2 609.827,316.8 610.169,318.4 610.511,320 610.853,321.6 611.195,323.2 611.537,324.8 611.879,326.4 612.221,328 612.563,329.6 612.905,331.2 613.248,332.8 613.59,334.4 613.932,336 614.274,337.6 614.616,339.2 614.958,340.8 615.3,342.4 615.642,344 615.984,345.6 616.326,347.2 616.668,348.8 617.01,350.4 617.352,352 617.694,353.6 618.036,355.2 618.378,356.8 618.72,358.4 619.062,360 619.404,361.6 619.746,363.2 620.088,364.8 620.43,366.4 620.772,368 621.115,369.6 621.457,371.2 621.799,372.8 622.141,374.4 622.483,376 622.825,377.6 623.167,379.2 623.509,380.8 623.851,382.4 624.193,384 624.535,385.6 624.877,387.2 625.219,388.8 625.561,390.4 625.903,392 626.245,393.6 626.587,395.2 626.929,396.8 627.271,398.4 627.613,400 627.955,400 628.297,400 628.64,400 628.982,400 629.324,400 629.666,400 630.008,400 630.35,400 630.692,400 631.034,400 631.376,400 631.718,400 632.06,400 632.402,400 632.744,400 633.086,400 633.428,400 633.77,400 634.112,400 634.454,400 634.796,400 635.138,400 635.48,400 635.822,400 636.164,400 636.507,400 636.849,400 637.191,400 637.533,400 637.875,400 638.217,400 638.559,400 638.901,400 639.243,400 639.585,400 639.927,400 640.269,400 640.611,400 640.953,400 641.295,400 641.637,400 641.979,400 642.321,400 642.663,400 643.005,400 643.347,400 643.689,400 644.032,400 644.374,400 644.716,400 645.058,400 645.4,400 645.742,400 646.084,400 646.426,400 646.768,400 647.11,400 647.452,400 647.794,400 648.136,400 648.478,400 648.82,400 649.162,400 649.504,400 649.846,400 650.188,400 650.53,400 650.872,400 651.214,400 651.556,400 651.899,400 652.241,400 652.583,400 652.925,400 653.267,400 653.609,400 653.951,400 654.293,400 654.635,400 654.977,400 655.319,400 655.661,400 656.003,400 656.345,400 656.687,400 657.029,400 657.371,400 657.713,400 658.055,400 658.397,400 658.739,400 659.081,400 659.424,400 659.766,400 660.108,400 660.45,400 660.792,400 661.134,400 661.476,400 661.818,400 662.16,400 662.502,400 662.844,400 663.186,400 663.528,400 663.87,400 664.212,400 664.554,400 664.896,400 665.238,400 665.58,400 665.922,400 666.264,400 666.606,400 666.949,400 667.291,400 667.633,400 667.975,400 668.317,400 668.659,400 669.001,400 669.343,400 669.685,400 670.027,400 670.369,400 670.711,400 671.053,400 671.395,400 671.737,400 672.079,400 672.421,400 672.763,400 673.105,400 673.447,400 673.789,398.4 674.131,396.8 674.473,395.2 674.816,393.6 675.158,392 675.5,390.4 675.842,388.8 676.184,387.2 676.526,385.6 676.868,384 677.21,382.4 677.552,380.8 677.894,379.2 678.236,377.6 678.578,376 678.92,374.4 679.262,372.8 679.604,371.2 679.946,369.6 680.288,368 680.63,366.4 680.972,364.8 681.314,363.2 681.656,361.6 681.998,360 682.341,358.4 682.683,356.8 683.025,355.2 683.367,353.6 683.709,352 684.051,350.4 684.393,348.8 684.735,347.2 685.077,345.6 685.419,344 685.761,342.4 686.103,340.8 686.445,339.2 686.787,337.6 687.129,336 687.471,334.4 687.813,332.8 688.155,331.2 688.497,329.6 688.839,328 689.181,326.4 689.523,324.8 689.865,323.2 690.208,321.6 690.55,320 690.892,318.4 691.234,316.8 691.576,315.2 691.918,313.6 692.26,312 692.602,310.4 692.944,308.8 693.286,307.2 693.628,305.6 693.97,304 694.312,302.4 694.654,300.8 694.996,299.2 695.338,297.6 695.68,296 696.022,294.4 696.364,292.8 696.706,291.2 697.048,289.6 697.39,288 697.733,286.4 698.075,284.8 698.417,283.2 698.759,281.6 699.101,280 699.443,278.4 699.785,276.8 700.127,275.2 700.469,273.6 700.811,272 701.153,270.4 701.495,268.8 701.837,267.2 702.179,265.6 702.521,264 702.863,262.4 703.205,260.8 703.547,259.2 703.889,257.6 704.231,256 704.573,254.4 704.915,252.8 705.257,251.2 705.6,249.6 705.942,248 706.284,246.4 706.626,244.8 706.968,243.2 707.31,241.6 707.652,240 707.994,238.4 708.336,236.8 708.678,235.2 709.02,233.6 709.362,232 709.704,230.4 710.046,228.8 710.388,227.2 710.73,225.6 711.072,224 711.414,222.4 711.756,220.8 712.098,219.2 712.44,217.6 712.782,216 713.125,214.4 713.467,212.8 713.809,211.2 714.151,209.6 714.493,208 714.835,206.4 715.177,204.8 715.519,203.2 715.861,201.6 716.203,200 716.545,198.4 716.887,196.8 717.229,195.2 717.571,193.6 717.913,192 718.255,190.4 718.597,188.8 718.939,187.2 719.281,185.6 719.623,184 719.965,182.4 720.307,180.8 720.65,179.2 720.992,177.6 721.334,176 721.676,174.4 722.018,172.8 722.36,171.2 722.702,169.6 723.044,168 723.386,166.4 723.728,164.8 724.07,163.2 724.412,161.6 724.754,160 725.096,158.4 725.438,156.8 725.78,155.2 726.122,153.6 726.464,152 726.806,150.4 727.148,148.8 727.49,147.2 727.832,145.6 728.174,144 728.517,142.4 728.859,140.8 729.201,139.2 729.543,137.6 729.885,136 730.227,134.4 730.569,132.8 730.911,131.2 731.253,129.6 731.595,128 731.937,126.4 732.279,124.8 732.621,123.2 732.963,121.6 733.305,120 733.647,118.4 733.989,116.8 734.331,115.2 734.673,113.6 735.015,112 735.357,110.4 735.699,108.8 736.042,107.2 736.384,105.6 736.726,104 737.068,102.4 737.41,100.8 737.752,99.2 738.094,97.6 738.436,96 738.778,94.4 739.12,92.8 739.462,91.2 739.804,89.6 740.146,88 740.488,86.4 740.83,84.8 741.172,83.2 741.514,81.6 741.856,80 742.198,80 742.54,80 742.882,80 743.224,80 743.566,80 743.909,80 744.251,80 744.593,80 744.935,80 745.277,80 745.619,80 745.961,80 746.303,80 746.645,80 746.987,80 747.329,80 747.671,80 748.013,80 748.355,80 748.697,80 749.039,80 749.381,80 749.723,80 750.065,80 750.407,80 750.749,80 751.091,80 751.434,80 751.776,80 752.118,80 752.46,80 752.802,80 753.144,80 753.486,80 753.828,80 754.17,80 754.512,80 754.854,80 755.196,80 755.538,80 755.88,80 756.222,80 756.564,80 756.906,80 757.248,80 757.59,80 757.932,80 758.274,80 758.616,80 758.958,80 759.301,80 759.643,80 759.985,80 760.327,80 760.669,80 761.011,80 761.353,80 761.695,80 762.037,80 762.379,80 762.721,80 763.063,80 763.405,80 763.747,80 764.089,80 764.431,80 764.773,80 765.115,80 765.457,80 765.799,80 766.141,80 766.483,80 766.826,80 767.168,80 767.51,80 767.852,80 768.194,80 768.536,80 768.878,80 769.22,80 769.562,80 769.904,80 770.246,80 770.588,80 770.93,80 771.272,80 771.614,80 771.956,80 772.298,80 772.64,80 772.982,80 773.324,80 773.666,80 774.008,80 774.35,80 774.693,80 775.035,80 775.377,80 775.719,80 776.061,80 776.403,80 776.745,80 777.087,80 777.429,80 777.771,80 778.113,80 778.455,80 778.797,80 779.139,80 779.481,80 779.823,80 780.165,80 780.507,80 780.849,80 781.191,80 781.533,80 781.875,80 782.218,80 782.56,80 782.902,80 783.244,80 783.586,80 783.928,80 784.27,80 784.612,80 784.954,80 785.296,80 785.638,80 785.98,80 786.322,80 786.664,80 787.006,80 787.348,80 787.69,80 788.032,80 788.374,80 788.716,80 789.058,80 789.4,80 789.743,80 790.085,80 790.427,80 790.769,80 791.111,80 791.453,80 791.795,80 792.137,80 792.479,80 792.821,80 793.163,80 793.505,80 793.847,80 794.189,80 794.531,80 794.873,80 795.215,80 795.557,80 795.899,80 796.241,80 796.583,80 796.925,80 797.267,80 797.61,80 797.952,80 798.294,80 798.636,80 798.978,80 799.32,80 799.662,80 800.004,80 800.346,80 800.688,80 801.03,80 801.372,80 801.714,80 802.056,80 802.398,80 802.74,80 803.082,80 803.424,80 803.766,80 804.108,80 804.45,80 804.792,80 805.135,80 805.477,80 805.819,80 806.161,80 806.503,80 806.845,80 807.187,80 807.529,80 807.871,80 808.213,80 808.555,80 808.897,80 809.239,80 809.581,80 809.923,80 810.265,80 810.607,80 810.949,80 811.291,80 811.633,80 811.975,80 812.317,80 812.659,80 813.002,80 813.344,80 813.686,80 814.028,80 814.37,80 814.712,80 815.054,80 815.396,80 815.738,80 816.08,80 816.422,80 816.764,80 817.106,80 817.448,80 817.79,80 818.132,80 818.474,80 818.816,80 819.158,80 819.5,80 819.842,80 820.184,80 820.527,80 820.869,80 821.211,80 821.553,80 821.895,80 822.237,80 822.579,80 822.921,80 823.263,80 823.605,80 823.947,80 824.289,80 824.631,80 824.973,80 825.315,80 825.657,80 825.999,80 826.341,80 826.683,80 827.025,80 827.367,80 827.709,80 828.051,80 828.394,80 828.736,80 829.078,80 829.42,80 829.762,80 830.104,80 830.446,80 830.788,80 831.13,80 831.472,80 831.814,80 832.156,80 832.498,80 832.84,80 833.182,80 833.524,80 833.866,80 834.208,80 834.55,80 834.892,80 835.234,80 835.576,80 835.919,80 836.261,80 836.603,80 836.945,80 837.287,80 837.629,80 837.971,80 838.313,80 838.655,80 838.997,80 839.339,80 839.681,80 840.023,80 840.365,80 840.707,80 841.049,80 841.391,80 841.733,80 842.075,80 842.417,80 842.759,80 843.101,80 843.444,80 843.786,80 844.128,80 844.47,80 844.812,80 845.154,80 845.496,80 845.838,80 846.18,80 846.522,80 846.864,80 847.206,80 847.548,80 847.89,80 848.232,80 848.574,80 848.916,80 849.258,80 849.6,80 849.942,80 850.284,80 850.626,80 850.968,80 851.311,80 851.653,80 851.995,80 852.337,80 852.679,80 853.021,80 853.363,80 853.705,80 854.047,80 854.389,80 854.731,80 855.073,80 855.415,80 855.757,80 856.099,80 856.441,81.6 856.783,83.2 857.125,84.8 857.467,86.4 857.809,88 858.151,89.6 858.493,91.2 858.836,92.8 859.178,94.4 859.52,96 859.862,97.6 860.204,99.2 860.546,100.8 860.888,102.4 861.23,104 861.572,105.6 861.914,107.2 862.256,108.8 862.598,110.4 862.94,112 863.282,113.6 863.624,115.2 863.966,116.8 864.308,118.4 864.65,120 864.992,121.6 865.334,123.2 865.676,124.8 866.018,126.4 866.36,128 866.703,129.6 867.045,131.2 867.387,132.8 867.729,134.4 868.071,136 868.413,137.6 868.755,139.2 869.097,140.8 869.439,142.4 869.781,144 870.123,145.6 870.465,147.2 870.807,148.8 871.149,150.4 871.491,152 871.833,153.6 872.175,155.2 872.517,156.8 872.859,158.4 873.201,160 873.543,161.6 873.885,163.2 874.228,164.8 874.57,166.4 874.912,168 875.254,169.6 875.596,171.2 875.938,172.8 876.28,174.4 876.622,176 876.964,177.6 877.306,179.2 877.648,180.8 877.99,182.4 878.332,184 878.674,185.6 879.016,187.2 879.358,188.8 879.7,190.4 880.042,192 880.384,193.6 880.726,195.2 881.068,196.8 881.41,198.4 881.752,200 882.095,201.6 882.437,203.2 882.779,204.8 883.121,206.4 883.463,208 883.805,209.6 884.147,211.2 884.489,212.8 884.831,214.4 885.173,216 885.515,217.6 885.857,219.2 886.199,220.8 886.541,222.4 886.883,224 887.225,225.6 887.567,227.2 887.909,228.8 888.251,230.4 888.593,232 888.935,233.6 889.277,235.2 889.62,236.8 889.962,238.4 890.304,240 890.646,241.6 890.988,243.2 891.33,244.8 891.672,246.4 892.014,248 892.356,249.6 892.698,251.2 893.04,252.8 893.382,254.4 893.724,256 894.066,257.6 894.408,259.2 894.75,260.8 895.092,262.4 895.434,264 895.776,265.6 896.118,267.2 896.46,268.8 896.802,270.4 897.145,272 897.487,273.6 897.829,275.2 898.171,276.8 898.513,278.4 898.855,280 899.197,281.6 899.539,283.2 899.881,284.8 900.223,286.4 900.565,288 900.907,289.6 901.249,291.2 901.591,292.8 901.933,294.4 902.275,296 902.617,297.6 902.959,299.2 903.301,300.8 903.643,302.4 903.985,304 904.327,305.6 904.669,307.2 905.012,308.8 905.354,310.4 905.696,312 906.038,313.6 906.38,315.2 906.722,316.8 907.064,318.4 907.406,320 907.748,321.6 908.09,323.2 908.432,324.8 908.774,326.4 909.116,328 909.458,329.6 909.8,331.2 910.142,332.8 910.484,334.4 910.826,336 911.168,337.6 911.51,339.2 911.852,340.8 912.194,342.4 912.537,344 912.879,345.6 913.221,347.2 913.563,348.8 913.905,350.4 914.247,352 914.589,353.6 914.931,355.2 915.273,356.8 915.615,358.4 915.957,360 916.299,361.6 916.641,363.2 916.983,364.8 917.325,366.4 917.667,368 918.009,369.6 918.351,371.2 918.693,372.8 919.035,374.4 919.377,376 919.719,377.6 920.061,379.2 920.404,380.8 920.746,382.4 921.088,384 921.43,385.6 921.772,387.2 922.114,388.8 922.456,390.4 922.798,392 923.14,393.6 923.482,395.2 923.824,396.8 924.166,398.4 924.508,400 924.85,400 925.192,400 925.534,400 925.876,400 926.218,400 926.56,400 926.902,400 927.244,400 927.586,400 927.929,400 928.271,400 928.613,400 928.955,400 929.297,400 929.639,400 929.981,400 930.323,400 930.665,400 931.007,400 931.349,400 931.691,400 932.033,400 932.375,400 932.717,400 933.059,400 933.401,400 933.743,400 934.085,400 934.427,400 934.769,400 935.111,400 935.453,400 935.796,400 936.138,400 936.48,400 936.822,400 937.164,400 937.506,400 937.848,400 938.19,400 938.532,400 938.874,400 939.216,400 939.558,400 939.9,400 940.242,400 940.584,400 940.926,400 941.268,400 941.61,400 941.952,400 942.294,400 942.636,400 942.978,400 943.321,400 943.663,400 944.005,400 944.347,400 944.689,400 945.031,400 945.373,400 945.715,400 946.057,400 946.399,400 946.741,400 947.083,400 947.425,400 947.767,400 948.109,400 948.451,400 948.793,400 949.135,400 949.477,400 949.819,400 950.161,400 950.503,400 950.846,400 951.188,400 951.53,400 951.872,400 952.214,400 952.556,400 952.898,400 953.24,400 953.582,400 953.924,400 954.266,400 954.608,400 954.95,400 955.292,400 955.634,400 955.976,400 956.318,400 956.66,400 957.002,400 957.344,400 957.686,400 958.028,400 958.37,400 958.713,400 959.055,400 959.397,400 959.739,400 960.081,400 960.423,400 960.765,400 961.107,400 961.449,400 961.791,400 962.133,400 962.475,400 962.817,400 963.159,400 963.501,400 963.843,400 964.185,400 964.527,400 964.869,400 965.211,400 965.553,400 965.895,400 966.238,400 966.58,400 966.922,400 967.264,400 967.606,400 967.948,400 968.29,400 968.632,400 968.974,400 969.316,400 969.658,400 970,400 " />
<polyline fill="none" stroke="#1b70c9" stroke-width="2" points="80,399.994 80.342,399.977 80.6841,399.945 81.0261,399.893 81.3682,399.818 81.7102,399.717 82.0523,399.588 82.3943,399.428 82.7364,399.236 83.0784,399.01 83.4204,398.749 83.7625,398.451 84.1045,398.116 84.4466,397.743 84.7886,397.332 85.1307,396.883 85.4727,396.394 85.8148,395.867 86.1568,395.301 86.4988,394.697 86.8409,394.054 87.1829,393.372 87.525,392.653 87.867,391.897 88.2091,391.104 88.5511,390.274 88.8932,389.409 89.2352,388.508 89.5772,387.573 89.9193,386.603 90.2613,385.601 90.6034,384.566 90.9454,383.498 91.2875,382.4 91.6295,381.271 91.9716,380.113 92.3136,378.925 92.6556,377.709 92.9977,376.465 93.3397,375.195 93.6818,373.898 94.0238,372.576 94.3659,371.23 94.7079,369.86 95.05,368.466 95.392,367.05 95.7341,365.612 96.0761,364.153 96.4181,362.674 96.7602,361.175 97.1022,359.657 97.4443,358.12 97.7863,356.566 98.1284,354.995 98.4704,353.408 98.8125,351.804 99.1545,350.186 99.4965,348.553 99.8386,346.906 100.181,345.245 100.523,343.572 100.865,341.887 101.207,340.189 101.549,338.481 101.891,336.762 102.233,335.032 102.575,333.294 102.917,331.545 103.259,329.789 103.601,328.024 103.943,326.251 104.285,324.471 104.627,322.684 104.969,320.89 105.311,319.091 105.653,317.285 105.995,315.475 106.337,313.659 106.679,311.839 107.022,310.015 107.364,308.187 107.706,306.356 108.048,304.521 108.39,302.683 108.732,300.843 109.074,299.001 109.416,297.156 109.758,295.31 110.1,293.462 110.442,291.613 110.784,289.764 111.126,287.913 111.468,286.062 111.81,284.211 112.152,282.359 112.494,280.508 112.836,278.657 113.178,276.807 113.52,274.957 113.862,273.108 114.204,271.261 114.547,269.414 114.889,267.569 115.231,265.725 115.573,263.883 115.915,262.043 116.257,260.205 116.599,258.368 116.941,256.534 117.283,254.702 117.625,252.872 117.967,251.045 118.309,249.22 118.651,247.398 118.993,245.578 119.335,243.761 119.677,241.947 120.019,240.136 120.361,238.328 120.703,236.522 121.045,234.72 121.387,232.921 121.729,231.124 122.071,229.331 122.414,227.541 122.756,225.755 123.098,223.971 123.44,222.191 123.782,220.414 124.124,218.64 124.466,216.87 124.808,215.103 125.15,213.339 125.492,211.578 125.834,209.821 126.176,208.067 126.518,206.316 126.86,204.569 127.202,202.825 127.544,201.084 127.886,199.346 128.228,197.612 128.57,195.88 128.912,194.152 129.254,192.427 129.596,190.705 129.939,188.987 130.281,187.271 130.623,185.559 130.965,183.849 131.307,182.143 131.649,180.439 131.991,178.738 132.333,177.041 132.675,175.346 133.017,173.654 133.359,171.964 133.701,170.278 134.043,168.594 134.385,166.913 134.727,165.234 135.069,163.558 135.411,161.885 135.753,160.214 136.095,158.545 136.437,156.879 136.779,155.216 137.121,153.554 137.463,151.895 137.806,150.239 138.148,148.584 138.49,146.932 138.832,145.281 139.174,143.633 139.516,141.987 139.858,140.343 140.2,138.701 140.542,137.06 140.884,135.422 141.226,133.785 141.568,132.15 141.91,130.517 142.252,128.886 142.594,127.256 142.936,125.628 143.278,124.001 143.62,122.376 143.962,120.753 144.304,119.131 144.646,117.51 144.988,115.891 145.331,114.273 145.673,112.656 146.015,111.041 146.357,109.426 146.699,107.813 147.041,106.202 147.383,104.591 147.725,102.981 148.067,101.373 148.409,99.7708 148.751,98.181 149.093,96.6078 149.435,95.055 149.777,93.5259 150.119,92.0236 150.461,90.5505 150.803,89.1088 151.145,87.7002 151.487,86.3264 151.829,84.9886 152.171,83.6878 152.513,82.4247 152.855,81.2001 153.198,80.0143 153.54,78.8676 153.882,77.7603 154.224,76.6923 154.566,75.6637 154.908,74.6741 155.25,73.7234 155.592,72.8113 155.934,71.9374 156.276,71.1012 156.618,70.3023 156.96,69.54 157.302,68.814 157.644,68.1234 157.986,67.4678 158.328,66.8464 158.67,66.2585 159.012,65.7035 159.354,65.1806 159.696,64.6892 160.038,64.2284 160.38,63.7976 160.723,63.396 161.065,63.0228 161.407,62.6773 161.749,62.3587 162.091,62.0663 162.433,61.7994 162.775,61.5572 163.117,61.339 163.459,61.1439 163.801,60.9714 164.143,60.8207 164.485,60.6911 164.827,60.5818 165.169,60.4923 165.511,60.4217 165.853,60.3694 166.195,60.3349 166.537,60.3173 166.879,60.3161 167.221,60.3306 167.563,60.3603 167.905,60.4044 168.248,60.4625 168.59,60.5338 168.932,60.6179 169.274,60.7142 169.616,60.8222 169.958,60.9412 170.3,61.0708 170.642,61.2104 170.984,61.3596 171.326,61.5178 171.668,61.6846 172.01,61.8595 172.352,62.042 172.694,62.2318 173.036,62.4283 173.378,62.6311 173.72,62.8399 174.062,63.0543 174.404,63.2738 174.746,63.498 175.088,63.7267 175.43,63.9594 175.772,64.1958 176.115,64.4355 176.457,64.6783 176.799,64.9239 177.141,65.1719 177.483,65.422 177.825,65.6739 178.167,65.9274 178.509,66.1823 178.851,66.4382 179.193,66.6949 179.535,66.9522 179.877,67.2098 180.219,67.4675 180.561,67.7252 180.903,67.9825 181.245,68.2394 181.587,68.4956 181.929,68.7509 182.271,69.0053 182.613,69.2584 182.955,69.5102 183.297,69.7605 183.64,70.0092 183.982,70.2561 184.324,70.5011 184.666,70.7441 185.008,70.9849 185.35,71.2235 185.692,71.4598 186.034,71.6936 186.376,71.9249 186.718,72.1536 187.06,72.3795 187.402,72.6027 187.744,72.8231 188.086,73.0405 188.428,73.255 188.77,73.4664 189.112,73.6748 189.454,73.88 189.796,74.0821 190.138,74.281 190.48,74.4766 190.822,74.669 191.164,74.8581 191.507,75.0439 191.849,75.2263 192.191,75.4054 192.533,75.5812 192.875,75.7535 193.217,75.9225 193.559,76.0882 193.901,76.2504 194.243,76.4093 194.585,76.5648 194.927,76.717 195.269,76.8658 195.611,77.0112 195.953,77.1534 196.295,77.2922 196.637,77.4278 196.979,77.5601 197.321,77.6891 197.663,77.8149 198.005,77.9375 198.347,78.057 198.689,78.1733 199.032,78.2865 199.374,78.3966 199.716,78.5037 200.058,78.6078 200.4,78.7089 200.742,78.8071 201.084,78.9023 201.426,78.9947 201.768,79.0843 202.11,79.1711 202.452,79.2551 202.794,79.3364 203.136,79.4151 203.478,79.4911 203.82,79.5646 204.162,79.6355 204.504,79.7039 204.846,79.7699 205.188,79.8335 205.53,79.8947 205.872,79.9535 206.214,80.0101 206.556,80.0645 206.899,80.1167 207.241,80.1667 207.583,80.2146 207.925,80.2605 208.267,80.3044 208.609,80.3463 208.951,80.3863 209.293,80.4243 209.635,80.4606 209.977,80.4951 210.319,80.5278 210.661,80.5588 211.003,80.5881 211.345,80.6158 211.687,80.6419 212.029,80.6665 212.371,80.6896 212.713,80.7112 213.055,80.7314 213.397,80.7502 213.739,80.7677 214.081,80.7839 214.424,80.7988 214.766,80.8125 215.108,80.825 215.45,80.8364 215.792,80.8466 216.134,80.8557 216.476,80.8638 216.818,80.8709 217.16,80.877 217.502,80.8822 217.844,80.8865 218.186,80.8899 218.528,80.8924 218.87,80.8941 219.212,80.8951 219.554,80.8953 219.896,80.8947 220.238,80.8935 220.58,80.8916 220.922,80.889 221.264,80.8859 221.606,80.8821 221.949,80.8778 222.291,80.873 222.633,80.8676 222.975,80.8618 223.317,80.8555 223.659,80.8488 224.001,80.8416 224.343,80.8341 224.685,80.8262 225.027,80.8179 225.369,80.8093 225.711,80.8004 226.053,80.7912 226.395,80.7818 226.737,80.772 227.079,80.7621 227.421,80.7519 227.763,80.7415 228.105,80.731 228.447,80.7202 228.789,80.7093 229.131,80.6983 229.473,80.6871 229.816,80.6759 230.158,80.6645 230.5,80.653 230.842,80.6415 231.184,80.6299 231.526,80.6183 231.868,80.6066 232.21,80.5949 232.552,80.5832 232.894,80.5715 233.236,80.5597 233.578,80.548 233.92,80.5363 234.262,80.5247 234.604,80.513 234.946,80.5015 235.288,80.4899 235.63,80.4785 235.972,80.4671 236.314,80.4558 236.656,80.4445 236.998,80.4334 237.341,80.4223 237.683,80.4113 238.025,80.4005 238.367,80.3897 238.709,80.379 239.051,80.3685 239.393,80.3581 239.735,80.3478 240.077,80.3376 240.419,80.3276 240.761,80.3177 241.103,80.3079 241.445,80.2983 241.787,80.2888 242.129,80.2794 242.471,80.2702 242.813,80.2611 243.155,80.2522 243.497,80.2435 243.839,80.2348 244.181,80.2264 244.523,80.218 244.865,80.2099 245.208,80.2019 245.55,80.194 245.892,80.1863 246.234,80.1788 246.576,80.1714 246.918,80.1641 247.26,80.157 247.602,80.1501 247.944,80.1433 248.286,80.1367 248.628,80.1302 248.97,80.1238 249.312,80.1177 249.654,80.1116 249.996,80.1057 250.338,80.1 250.68,80.0944 251.022,80.089 251.364,80.0836 251.706,80.0785 252.048,80.0735 252.39,80.0686 252.733,80.0638 253.075,80.0592 253.417,80.0547 253.759,80.0504 254.101,80.0462 254.443,80.0421 254.785,80.0381 255.127,80.0343 255.469,80.0306 255.811,80.027 256.153,80.0235 256.495,80.0201 256.837,80.0169 257.179,80.0138 257.521,80.0108 257.863,80.0079 258.205,80.0051 258.547,80.0024 258.889,79.9998 259.231,79.9973 259.573,79.9949 259.915,79.9926 260.257,79.9904 260.6,79.9884 260.942,79.9863 261.284,79.9844 261.626,79.9826 261.968,79.9809 262.31,80.3793 262.652,81.1259 262.994,82.1744 263.336,83.4832 263.678,85.0157 264.02,86.7391 264.362,88.6242 264.704,90.6454 265.046,92.7796 265.388,95.0067 265.73,97.3086 266.072,99.6695 266.414,102.076 266.756,104.514 267.098,106.975 267.44,109.448 267.782,111.925 268.125,114.399 268.467,116.864 268.809,119.314 269.151,121.744 269.493,124.152 269.835,126.532 270.177,128.883 270.519,131.201 270.861,133.486 271.203,135.736 271.545,137.948 271.887,140.123 272.229,142.26 272.571,144.358 272.913,146.417 273.255,148.437 273.597,150.418 273.939,152.36 274.281,154.264 274.623,156.131 274.965,157.96 275.307,159.752 275.65,161.509 275.992,163.231 276.334,164.919 276.676,166.573 277.018,168.195 277.36,169.785 277.702,171.345 278.044,172.875 278.386,174.377 278.728,175.852 279.07,177.299 279.412,178.721 279.754,180.119 280.096,181.493 280.438,182.844 280.78,184.174 281.122,185.484 281.464,186.773 281.806,188.044 282.148,189.297 282.49,190.533 282.832,191.754 283.174,192.959 283.517,194.15 283.859,195.327 284.201,196.492 284.543,197.646 284.885,198.788 285.227,199.92 285.569,201.043 285.911,202.157 286.253,203.263 286.595,204.362 286.937,205.455 287.279,206.541 287.621,207.622 287.963,208.698 288.305,209.77 288.647,210.839 288.989,211.905 289.331,212.968 289.673,214.029 290.015,215.089 290.357,216.148 290.699,217.207 291.042,218.265 291.384,219.324 291.726,220.384 292.068,221.445 292.41,222.508 292.752,223.572 293.094,224.639 293.436,225.709 293.778,226.781 294.12,227.857 294.462,228.937 294.804,230.02 295.146,231.107 295.488,232.199 295.83,233.295 296.172,234.396 296.514,235.503 296.856,236.614 297.198,237.731 297.54,238.853 297.882,239.981 298.224,241.115 298.566,242.255 298.909,243.401 299.251,244.554 299.593,245.713 299.935,246.878 300.277,248.05 300.619,249.229 300.961,250.414 301.303,251.607 301.645,252.806 301.987,254.012 302.329,255.225 302.671,256.445 303.013,257.672 303.355,258.906 303.697,260.148 304.039,261.396 304.381,262.651 304.723,263.914 305.065,265.183 305.407,266.46 305.749,267.744 306.091,269.034 306.434,270.332 306.776,271.637 307.118,272.948 307.46,274.267 307.802,275.592 308.144,276.924 308.486,278.263 308.828,279.608 309.17,280.961 309.512,282.319 309.854,283.684 310.196,285.056 310.538,286.434 310.88,287.818 311.222,289.209 311.564,290.605 311.906,292.008 312.248,293.417 312.59,294.831 312.932,296.252 313.274,297.678 313.616,299.11 313.958,300.547 314.301,301.99 314.643,303.438 314.985,304.891 315.327,306.35 315.669,307.814 316.011,309.282 316.353,310.756 316.695,312.235 317.037,313.718 317.379,315.206 317.721,316.698 318.063,318.195 318.405,319.696 318.747,321.202 319.089,322.712 319.431,324.226 319.773,325.744 320.115,327.265 320.457,328.791 320.799,330.32 321.141,331.853 321.483,333.39 321.826,334.929 322.168,336.473 322.51,338.019 322.852,339.569 323.194,341.122 323.536,342.678 323.878,344.237 324.22,345.799 324.562,347.363 324.904,348.93 325.246,350.5 325.588,352.073 325.93,353.647 326.272,355.225 326.614,356.804 326.956,358.386 327.298,359.97 327.64,361.556 327.982,363.144 328.324,364.734 328.666,366.326 329.008,367.92 329.35,369.515 329.693,371.112 330.035,372.711 330.377,374.311 330.719,375.913 331.061,377.51 331.403,379.098 331.745,380.671 332.087,382.227 332.429,383.76 332.771,385.269 333.113,386.751 333.455,388.203 333.797,389.623 334.139,391.01 334.481,392.364 334.823,393.681 335.165,394.962 335.507,396.207 335.849,397.413 336.191,398.582 336.533,399.713 336.875,400.805 337.218,401.859 337.56,402.875 337.902,403.853 338.244,404.794 338.586,405.697 338.928,406.563 339.27,407.392 339.612,408.186 339.954,408.943 340.296,409.666 340.638,410.355 340.98,411.009 341.322,411.631 341.664,412.22 342.006,412.777 342.348,413.303 342.69,413.799 343.032,414.265 343.374,414.702 343.716,415.111 344.058,415.492 344.4,415.846 344.743,416.174 345.085,416.476 345.427,416.754 345.769,417.008 346.111,417.238 346.453,417.446 346.795,417.632 347.137,417.797 347.479,417.941 347.821,418.066 348.163,418.171 348.505,418.257 348.847,418.326 349.189,418.377 349.531,418.412 349.873,418.431 350.215,418.434 350.557,418.423 350.899,418.397 351.241,418.357 351.583,418.305 351.925,418.24 352.267,418.162 352.61,418.074 352.952,417.974 353.294,417.864 353.636,417.744 353.978,417.615 354.32,417.476 354.662,417.329 355.004,417.174 355.346,417.011 355.688,416.841 356.03,416.664 356.372,416.481 356.714,416.292 357.056,416.097 357.398,415.897 357.74,415.692 358.082,415.483 358.424,415.269 358.766,415.051 359.108,414.831 359.45,414.606 359.792,414.379 360.135,414.15 360.477,413.918 360.819,413.684 361.161,413.448 361.503,413.211 361.845,412.972 362.187,412.733 362.529,412.492 362.871,412.251 363.213,412.01 363.555,411.769 363.897,411.528 364.239,411.286 364.581,411.046 364.923,410.806 365.265,410.566 365.607,410.328 365.949,410.091 366.291,409.855 366.633,409.62 366.975,409.387 367.317,409.156 367.659,408.926 368.002,408.698 368.344,408.472 368.686,408.249 369.028,408.027 369.37,407.808 369.712,407.591 370.054,407.376 370.396,407.164 370.738,406.955 371.08,406.748 371.422,406.544 371.764,406.343 372.106,406.145 372.448,405.949 372.79,405.757 373.132,405.567 373.474,405.38 373.816,405.197 374.158,405.016 374.5,404.839 374.842,404.664 375.184,404.493 375.527,404.325 375.869,404.16 376.211,403.998 376.553,403.823 376.895,403.648 377.237,403.467 377.579,403.276 377.921,403.069 378.263,402.844 378.605,402.597 378.947,402.327 379.289,402.029 379.631,401.704 379.973,401.347 380.315,400.96 380.657,400.54 380.999,400.086 381.341,399.598 381.683,399.074 382.025,398.516 382.367,397.922 382.709,397.292 383.051,396.627 383.394,395.926 383.736,395.19 384.078,394.418 384.42,393.611 384.762,392.77 385.104,391.895 385.446,390.986 385.788,390.043 386.13,389.068 386.472,388.061 386.814,387.023 387.156,385.954 387.498,384.854 387.84,383.725 388.182,382.567 388.524,381.38 388.866,380.166 389.208,378.926 389.55,377.659 389.892,376.366 390.234,375.049 390.576,373.707 390.919,372.342 391.261,370.955 391.603,369.545 391.945,368.114 392.287,366.662 392.629,365.19 392.971,363.699 393.313,362.189 393.655,360.661 393.997,359.116 394.339,357.553 394.681,355.975 395.023,354.381 395.365,352.771 395.707,351.148 396.049,349.51 396.391,347.86 396.733,346.196 397.075,344.521 397.417,342.833 397.759,341.135 398.101,339.426 398.444,337.707 398.786,335.978 399.128,334.24 399.47,332.494 399.812,330.739 400.154,328.976 400.496,327.206 400.838,325.429 401.18,323.646 401.522,321.856 401.864,320.061 402.206,318.261 402.548,316.455 402.89,314.645 403.232,312.831 403.574,311.012 403.916,309.19 404.258,307.365 404.6,305.537 404.942,303.706 405.284,301.873 405.626,300.038 405.968,298.201 406.311,296.362 406.653,294.522 406.995,292.681 407.337,290.839 407.679,288.996 408.021,287.153 408.363,285.31 408.705,283.467 409.047,281.624 409.389,279.782 409.731,277.94 410.073,276.099 410.415,274.258 410.757,272.419 411.099,270.581 411.441,268.745 411.783,266.91 412.125,265.076 412.467,263.245 412.809,261.415 413.151,259.587 413.493,257.761 413.836,255.937 414.178,254.116 414.52,252.297 414.862,250.481 415.204,248.667 415.546,246.855 415.888,245.047 416.23,243.241 416.572,241.437 416.914,239.637 417.256,237.839 417.598,236.045 417.94,234.253 418.282,232.465 418.624,230.679 418.966,228.897 419.308,227.117 419.65,225.341 419.992,223.568 420.334,221.798 420.676,220.031 421.018,218.268 421.36,216.507 421.703,214.75 422.045,212.996 422.387,211.245 422.729,209.497 423.071,207.753 423.413,206.011 423.755,204.273 424.097,202.538 424.439,200.806 424.781,199.077 425.123,197.351 425.465,195.628 425.807,193.909 426.149,192.192 426.491,190.479 426.833,188.768 427.175,187.06 427.517,185.355 427.859,183.653 428.201,181.954 428.543,180.258 428.885,178.564 429.228,176.874 429.57,175.186 429.912,173.5 430.254,171.818 430.596,170.138 430.938,168.46 431.28,166.785 431.622,165.112 431.964,163.442 432.306,161.775 432.648,160.109 432.99,158.446 433.332,156.786 433.674,155.127 434.016,153.471 434.358,151.817 434.7,150.165 435.042,148.515 435.384,146.867 435.726,145.221 436.068,143.578 436.41,141.936 436.752,140.295 437.095,138.657 437.437,137.021 437.779,135.386 438.121,133.753 438.463,132.121 438.805,130.492 439.147,128.864 439.489,127.237 439.831,125.612 440.173,123.988 440.515,122.366 440.857,120.745 441.199,119.126 441.541,117.507 441.883,115.891 442.225,114.275 442.567,112.66 442.909,111.047 443.251,109.435 443.593,107.824 443.935,106.214 444.277,104.605 444.62,102.997 444.962,101.39 445.304,99.7898 445.646,98.2016 445.988,96.6297 446.33,95.0782 446.672,93.5504 447.014,92.0493 447.356,90.5773 447.698,89.1366 448.04,87.7291 448.382,86.3562 448.724,85.0193 449.066,83.7192 449.408,82.4569 449.75,81.233 450.092,80.0478 450.434,78.9018 450.776,77.795 451.118,76.7275 451.46,75.6993 451.802,74.7101 452.145,73.7598 452.487,72.848 452.829,71.9743 453.171,71.1384 453.513,70.3396 453.855,69.5776 454.197,68.8516 454.539,68.1611 454.881,67.5055 455.223,66.8841 455.565,66.2963 455.907,65.7412 456.249,65.2183 456.591,64.7267 456.933,64.2658 457.275,63.8349 457.617,63.433 457.959,63.0597 458.301,62.7139 458.643,62.3951 458.985,62.1025 459.327,61.8353 459.669,61.5928 460.012,61.3742 460.354,61.1789 460.696,61.006 461.038,60.855 461.38,60.725 461.722,60.6153 462.064,60.5254 462.406,60.4544 462.748,60.4017 463.09,60.3667 463.432,60.3487 463.774,60.347 464.116,60.3611 464.458,60.3903 464.8,60.434 465.142,60.4916 465.484,60.5625 465.826,60.6461 466.168,60.7419 466.51,60.8494 466.852,60.9679 467.194,61.097 467.537,61.2361 467.879,61.3848 468.221,61.5425 468.563,61.7088 468.905,61.8832 469.247,62.0653 469.589,62.2545 469.931,62.4505 470.273,62.6529 470.615,62.8612 470.957,63.0751 471.299,63.2941 471.641,63.5178 471.983,63.746 472.325,63.9782 472.667,64.2142 473.009,64.4535 473.351,64.6958 473.693,64.9409 474.035,65.1884 474.377,65.4381 474.719,65.6896 475.061,65.9427 475.404,66.1971 475.746,66.4525 476.088,66.7088 476.43,66.9657 476.772,67.2229 477.114,67.4802 477.456,67.7374 477.798,67.9944 478.14,68.2509 478.482,68.5067 478.824,68.7617 479.166,69.0156 479.508,69.2684 479.85,69.5198 480.192,69.7698 480.534,70.0181 480.876,70.2647 481.218,70.5093 481.56,70.752 481.902,70.9925 482.244,71.2308 482.586,71.4668 482.929,71.7003 483.271,71.9313 483.613,72.1597 483.955,72.3854 484.297,72.6083 484.639,72.8284 484.981,73.0455 485.323,73.2597 485.665,73.4709 486.007,73.679 486.349,73.8841 486.691,74.0859 487.033,74.2846 487.375,74.48 487.717,74.6722 488.059,74.861 488.401,75.0466 488.743,75.2289 489.085,75.4078 489.427,75.5833 489.769,75.7555 490.111,75.9244 490.453,76.0898 490.796,76.2519 491.138,76.4106 491.48,76.566 491.822,76.718 492.164,76.8667 492.506,77.012 492.848,77.154 493.19,77.2927 493.532,77.4281 493.874,77.5603 494.216,77.6892 494.558,77.8149 494.9,77.9374 495.242,78.0568 495.584,78.173 495.926,78.2861 496.268,78.3962 496.61,78.5032 496.952,78.6072 497.294,78.7082 497.636,78.8063 497.978,78.9015 498.321,78.9938 498.663,79.0833 499.005,79.17 499.347,79.254 499.689,79.3353 500.031,79.4139 500.373,79.4899 500.715,79.5633 501.057,79.6342 501.399,79.7025 501.741,79.7685 502.083,79.832 502.425,79.8932 502.767,79.952 503.109,80.0086 503.451,80.0629 503.793,80.1151 504.135,80.1651 504.477,80.213 504.819,80.2589 505.161,80.3027 505.503,80.3446 505.846,80.3846 506.188,80.4226 506.53,80.4589 506.872,80.4933 507.214,80.526 507.556,80.557 507.898,80.5864 508.24,80.6141 508.582,80.6402 508.924,80.6648 509.266,80.6879 509.608,80.7095 509.95,80.7297 510.292,80.7486 510.634,80.766 510.976,80.7822 511.318,80.7972 511.66,80.8109 512.002,80.8234 512.344,80.8347 512.686,80.845 513.028,80.8541 513.37,80.8623 513.713,80.8694 514.055,80.8755 514.397,80.8807 514.739,80.885 515.081,80.8884 515.423,80.8909 515.765,80.8927 516.107,80.8936 516.449,80.8938 516.791,80.8933 517.133,80.8921 517.475,80.8902 517.817,80.8877 518.159,80.8846 518.501,80.8808 518.843,80.8766 519.185,80.8718 519.527,80.8664 519.869,80.8606 520.211,80.8544 520.553,80.8476 520.895,80.8405 521.238,80.833 521.58,80.8251 521.922,80.8169 522.264,80.8083 522.606,80.7994 522.948,80.7902 523.29,80.7808 523.632,80.7711 523.974,80.7612 524.316,80.751 524.658,80.7406 525,80.7301 525.342,80.7194 525.684,80.7085 526.026,80.6975 526.368,80.6864 526.71,80.6751 527.052,80.6638 527.394,80.6523 527.736,80.6408 528.078,80.6292 528.42,80.6176 528.762,80.606 529.105,80.5943 529.447,80.5826 529.789,80.5709 530.131,80.5592 530.473,80.5475 530.815,80.5358 531.157,80.5242 531.499,80.5126 531.841,80.501 532.183,80.4895 532.525,80.478 532.867,80.4667 533.209,80.4553 533.551,80.4441 533.893,80.433 534.235,80.4219 534.577,80.411 534.919,80.4001 535.261,80.3894 535.603,80.3787 535.945,80.3682 536.287,80.3578 536.63,80.3475 536.972,80.3374 537.314,80.3273 537.656,80.3174 537.998,80.3077 538.34,80.2981 538.682,80.2886 539.024,80.2792 539.366,80.27 539.708,80.261 540.05,80.2521 540.392,80.2433 540.734,80.2347 541.076,80.2262 541.418,80.2179 541.76,80.2098 542.102,80.2018 542.444,80.1939 542.786,80.1862 543.128,80.1787 543.47,80.1713 543.812,80.164 544.154,80.157 544.497,80.15 544.839,80.1433 545.181,80.1366 545.523,80.1301 545.865,80.1238 546.207,80.1176 546.549,80.1116 546.891,80.1057 547.233,80.1 547.575,80.0944 547.917,80.089 548.259,80.0837 548.601,80.0785 548.943,80.0735 549.285,80.0686 549.627,80.0638 549.969,80.0592 550.311,80.0548 550.653,80.0504 550.995,80.0462 551.337,80.0421 551.679,80.0382 552.022,80.0343 552.364,80.0306 552.706,80.027 553.048,80.0236 553.39,80.0202 553.732,80.017 554.074,80.0138 554.416,80.0108 554.758,80.0079 555.1,80.0051 555.442,80.0024 555.784,79.9999 556.126,79.9974 556.468,79.995 556.81,79.9927 557.152,79.9905 557.494,79.9884 557.836,79.9864 558.178,79.9845 558.52,79.9827 558.862,79.9809 559.204,80.3794 559.547,81.126 559.889,82.1745 560.231,83.4833 560.573,85.0158 560.915,86.7391 561.257,88.6243 561.599,90.6454 561.941,92.7797 562.283,95.0067 562.625,97.3087 562.967,99.6696 563.309,102.076 563.651,104.514 563.993,106.975 564.335,109.448 564.677,111.925 565.019,114.399 565.361,116.864 565.703,119.314 566.045,121.744 566.387,124.152 566.729,126.532 567.071,128.883 567.414,131.201 567.756,133.486 568.098,135.736 568.44,137.948 568.782,140.123 569.124,142.26 569.466,144.358 569.808,146.417 570.15,148.437 570.492,150.418 570.834,152.36 571.176,154.264 571.518,156.131 571.86,157.96 572.202,159.752 572.544,161.509 572.886,163.231 573.228,164.919 573.57,166.573 573.912,168.195 574.254,169.785 574.596,171.345 574.939,172.875 575.281,174.377 575.623,175.852 575.965,177.299 576.307,178.721 576.649,180.119 576.991,181.493 577.333,182.844 577.675,184.174 578.017,185.484 578.359,186.773 578.701,188.044 579.043,189.297 579.385,190.533 579.727,191.754 580.069,192.959 580.411,194.15 580.753,195.327 581.095,196.492 581.437,197.646 581.779,198.788 582.121,199.92 582.463,201.043 582.806,202.157 583.148,203.263 583.49,204.362 583.832,205.455 584.174,206.541 584.516,207.622 584.858,208.698 585.2,209.77 585.542,210.839 585.884,211.905 586.226,212.968 586.568,214.029 586.91,215.089 587.252,216.148 587.594,217.207 587.936,218.265 588.278,219.324 588.62,220.384 588.962,221.445 589.304,222.508 589.646,223.572 589.988,224.639 590.331,225.709 590.673,226.781 591.015,227.857 591.357,228.937 591.699,230.02 592.041,231.107 592.383,232.199 592.725,233.295 593.067,234.396 593.409,235.503 593.751,236.614 594.093,237.731 594.435,238.853 594.777,239.981 595.119,241.115 595.461,242.255 595.803,243.401 596.145,244.554 596.487,245.713 596.829,246.878 597.171,248.05 597.513,249.229 597.855,250.414 598.198,251.607 598.54,252.806 598.882,254.012 599.224,255.225 599.566,256.445 599.908,257.672 600.25,258.906 600.592,260.147 600.934,261.396 601.276,262.651 601.618,263.914 601.96,265.183 602.302,266.46 602.644,267.744 602.986,269.034 603.328,270.332 603.67,271.637 604.012,272.948 604.354,274.267 604.696,275.592 605.038,276.924 605.38,278.263 605.723,279.608 606.065,280.961 606.407,282.319 606.749,283.684 607.091,285.056 607.433,286.434 607.775,287.818 608.117,289.209 608.459,290.605 608.801,292.008 609.143,293.417 609.485,294.831 609.827,296.252 610.169,297.678 610.511,299.11 610.853,300.547 611.195,301.99 611.537,303.438 611.879,304.891 612.221,306.35 612.563,307.814 612.905,309.282 613.248,310.756 613.59,312.235 613.932,313.718 614.274,315.206 614.616,316.698 614.958,318.195 615.3,319.696 615.642,321.202 615.984,322.712 616.326,324.226 616.668,325.744 617.01,327.265 617.352,328.791 617.694,330.32 618.036,331.853 618.378,333.39 618.72,334.929 619.062,336.473 619.404,338.019 619.746,339.569 620.088,341.122 620.43,342.678 620.772,344.237 621.115,345.799 621.457,347.363 621.799,348.93 622.141,350.5 622.483,352.073 622.825,353.647 623.167,355.225 623.509,356.804 623.851,358.386 624.193,359.97 624.535,361.556 624.877,363.144 625.219,364.734 625.561,366.326 625.903,367.92 626.245,369.515 626.587,371.112 626.929,372.711 627.271,374.311 627.613,375.913 627.955,377.51 628.297,379.098 628.64,380.671 628.982,382.227 629.324,383.76 629.666,385.269 630.008,386.751 630.35,388.203 630.692,389.623 631.034,391.01 631.376,392.364 631.718,393.681 632.06,394.962 632.402,396.207 632.744,397.413 633.086,398.582 633.428,399.713 633.77,400.805 634.112,401.859 634.454,402.875 634.796,403.853 635.138,404.794 635.48,405.697 635.822,406.563 636.164,407.392 636.507,408.186 636.849,408.943 637.191,409.666 637.533,410.355 637.875,411.009 638.217,411.631 638.559,412.22 638.901,412.777 639.243,413.303 639.585,413.799 639.927,414.265 640.269,414.702 640.611,415.111 640.953,415.492 641.295,415.846 641.637,416.174 641.979,416.476 642.321,416.754 642.663,417.008 643.005,417.238 643.347,417.446 643.689,417.632 644.032,417.797 644.374,417.941 644.716,418.066 645.058,418.171 645.4,418.257 645.742,418.326 646.084,418.377 646.426,418.412 646.768,418.431 647.11,418.434 647.452,418.423 647.794,418.397 648.136,418.357 648.478,418.305 648.82,418.24 649.162,418.162 649.504,418.074 649.846,417.974 650.188,417.864 650.53,417.744 650.872,417.615 651.214,417.476 651.556,417.329 651.899,417.174 652.241,417.011 652.583,416.841 652.925,416.664 653.267,416.481 653.609,416.292 653.951,416.097 654.293,415.897 654.635,415.692 654.977,415.483 655.319,415.269 655.661,415.051 656.003,414.831 656.345,414.606 656.687,414.379 657.029,414.15 657.371,413.918 657.713,413.684 658.055,413.448 658.397,413.211 658.739,412.972 659.081,412.733 659.424,412.492 659.766,412.251 660.108,412.01 660.45,411.769 660.792,411.528 661.134,411.286 661.476,411.046 661.818,410.806 662.16,410.566 662.502,410.328 662.844,410.091 663.186,409.855 663.528,409.62 663.87,409.387 664.212,409.156 664.554,408.926 664.896,408.698 665.238,408.472 665.58,408.249 665.922,408.027 666.264,407.808 666.606,407.591 666.949,407.376 667.291,407.164 667.633,406.955 667.975,406.748 668.317,406.544 668.659,406.343 669.001,406.145 669.343,405.949 669.685,405.757 670.027,405.567 670.369,405.38 670.711,405.197 671.053,405.016 671.395,404.839 671.737,404.664 672.079,404.493 672.421,404.325 672.763,404.16 673.105,403.998 673.447,403.823 673.789,403.648 674.131,403.467 674.473,403.276 674.816,403.069 675.158,402.844 675.5,402.597 675.842,402.327 676.184,402.029 676.526,401.704 676.868,401.347 677.21,400.96 677.552,400.54 677.894,400.086 678.236,399.598 678.578,399.074 678.92,398.516 679.262,397.922 679.604,397.292 679.946,396.627 680.288,395.926 680.63,395.19 680.972,394.418 681.314,393.611 681.656,392.77 681.998,391.895 682.341,390.986 682.683,390.043 683.025,389.068 683.367,388.061 683.709,387.023 684.051,385.954 684.393,384.854 684.735,383.725 685.077,382.567 685.419,381.38 685.761,380.166 686.103,378.926 686.445,377.659 686.787,376.366 687.129,375.049 687.471,373.707 687.813,372.342 688.155,370.955 688.497,369.545 688.839,368.114 689.181,366.662 689.523,365.19 689.865,363.699 690.208,362.189 690.55,360.661 690.892,359.116 691.234,357.553 691.576,355.975 691.918,354.381 692.26,352.771 692.602,351.148 692.944,349.51 693.286,347.86 693.628,346.196 693.97,344.521 694.312,342.833 694.654,341.135 694.996,339.426 695.338,337.707 695.68,335.978 696.022,334.24 696.364,332.494 696.706,330.739 697.048,328.976 697.39,327.206 697.733,325.429 698.075,323.646 698.417,321.856 698.759,320.061 699.101,318.261 699.443,316.455 699.785,314.645 700.127,312.831 700.469,311.012 700.811,309.19 701.153,307.365 701.495,305.537 701.837,303.706 702.179,301.873 702.521,300.038 702.863,298.201 703.205,296.362 703.547,294.522 703.889,292.681 704.231,290.839 704.573,288.996 704.915,287.153 705.257,285.31 705.6,283.467 705.942,281.624 706.284,279.782 706.626,277.94 706.968,276.099 707.31,274.258 707.652,272.419 707.994,270.581 708.336,268.745 708.678,266.91 709.02,265.076 709.362,263.245 709.704,261.415 710.046,259.587 710.388,257.761 710.73,255.937 711.072,254.116 711.414,252.297 711.756,250.481 712.098,248.667 712.44,246.855 712.782,245.047 713.125,243.241 713.467,241.437 713.809,239.637 714.151,237.839 714.493,236.045 714.835,234.253 715.177,232.465 715.519,230.679 715.861,228.897 716.203,227.117 716.545,225.341 716.887,223.568 717.229,221.798 717.571,220.031 717.913,218.268 718.255,216.507 718.597,214.75 718.939,212.996 719.281,211.245 719.623,209.497 719.965,207.753 720.307,206.011 720.65,204.273 720.992,202.538 721.334,200.806 721.676,199.077 722.018,197.351 722.36,195.628 722.702,193.909 723.044,192.192 723.386,190.479 723.728,188.768 724.07,187.06 724.412,185.355 724.754,183.653 725.096,181.954 725.438,180.258 725.78,178.564 726.122,176.874 726.464,175.186 726.806,173.5 727.148,171.818 727.49,170.138 727.832,168.46 728.174,166.785 728.517,165.112 728.859,163.442 729.201,161.775 729.543,160.109 729.885,158.446 730.227,156.786 730.569,155.127 730.911,153.471 731.253,151.817 731.595,150.165 731.937,148.515 732.279,146.867 732.621,145.221 732.963,143.578 733.305,141.936 733.647,140.295 733.989,138.657 734.331,137.021 734.673,135.386 735.015,133.753 735.357,132.121 735.699,130.492 736.042,128.864 736.384,127.237 736.726,125.612 737.068,123.988 737.41,122.366 737.752,120.745 738.094,119.126 738.436,117.507 738.778,115.891 739.12,114.275 739.462,112.66 739.804,111.047 740.146,109.435 740.488,107.824 740.83,106.214 741.172,104.605 741.514,102.997 741.856,101.39 742.198,99.7898 742.54,98.2016 742.882,96.6297 743.224,95.0782 743.566,93.5504 743.909,92.0493 744.251,90.5773 744.593,89.1366 744.935,87.7291 745.277,86.3562 745.619,85.0193 745.961,83.7192 746.303,82.4569 746.645,81.233 746.987,80.0478 747.329,78.9018 747.671,77.795 748.013,76.7275 748.355,75.6993 748.697,74.7101 749.039,73.7598 749.381,72.848 749.723,71.9743 750.065,71.1384 750.407,70.3396 750.749,69.5776 751.091,68.8516 751.434,68.1611 751.776,67.5055 752.118,66.8841 752.46,66.2963 752.802,65.7412 753.144,65.2183 753.486,64.7267 753.828,64.2658 754.17,63.8349 754.512,63.433 754.854,63.0597 755.196,62.7139 755.538,62.3951 755.88,62.1025 756.222,61.8353 756.564,61.5928 756.906,61.3742 757.248,61.1789 757.59,61.006 757.932,60.855 758.274,60.725 758.616,60.6153 758.958,60.5254 759.301,60.4544 759.643,60.4017 759.985,60.3667 760.327,60.3487 760.669,60.347 761.011,60.3611 761.353,60.3903 761.695,60.434 762.037,60.4916 762.379,60.5625 762.721,60.6461 763.063,60.7419 763.405,60.8494 763.747,60.9679 764.089,61.097 764.431,61.2361 764.773,61.3848 765.115,61.5425 765.457,61.7088 765.799,61.8832 766.141,62.0653 766.483,62.2545 766.826,62.4505 767.168,62.6529 767.51,62.8612 767.852,63.0751 768.194,63.2941 768.536,63.5178 768.878,63.746 769.22,63.9782 769.562,64.2142 769.904,64.4535 770.246,64.6958 770.588,64.9409 770.93,65.1884 771.272,65.4381 771.614,65.6896 771.956,65.9427 772.298,66.1971 772.64,66.4525 772.982,66.7088 773.324,66.9657 773.666,67.2229 774.008,67.4802 774.35,67.7374 774.693,67.9944 775.035,68.2509 775.377,68.5067 775.719,68.7617 776.061,69.0156 776.403,69.2684 776.745,69.5198 777.087,69.7698 777.429,70.0181 777.771,70.2647 778.113,70.5093 778.455,70.752 778.797,70.9925 779.139,71.2308 779.481,71.4668 779.823,71.7003 780.165,71.9313 780.507,72.1597 780.849,72.3854 781.191,72.6083 781.533,72.8284 781.875,73.0455 782.218,73.2597 782.56,73.4709 782.902,73.679 783.244,73.8841 783.586,74.0859 783.928,74.2846 784.27,74.48 784.612,74.6722 784.954,74.861 785.296,75.0466 785.638,75.2289 785.98,75.4078 786.322,75.5833 786.664,75.7555 787.006,75.9244 787.348,76.0898 787.69,76.2519 788.032,76.4106 788.374,76.566 788.716,76.718 789.058,76.8667 789.4,77.012 789.743,77.154 790.085,77.2927 790.427,77.4281 790.769,77.5603 791.111,77.6892 791.453,77.8149 791.795,77.9374 792.137,78.0568 792.479,78.173 792.821,78.2861 793.163,78.3962 793.505,78.5032 793.847,78.6072 794.189,78.7082 794.531,78.8063 794.873,78.9015 795.215,78.9938 795.557,79.0833 795.899,79.17 796.241,79.254 796.583,79.3353 796.925,79.4139 797.267,79.4899 797.61,79.5633 797.952,79.6342 798.294,79.7025 798.636,79.7685 798.978,79.832 799.32,79.8932 799.662,79.952 800.004,80.0086 800.346,80.0629 800.688,80.1151 801.03,80.1651 801.372,80.213 801.714,80.2589 802.056,80.3027 802.398,80.3446 802.74,80.3846 803.082,80.4226 803.424,80.4589 803.766,80.4933 804.108,80.526 804.45,80.557 804.792,80.5864 805.135,80.6141 805.477,80.6402 805.819,80.6648 806.161,80.6879 806.503,80.7095 806.845,80.7297 807.187,80.7486 807.529,80.766 807.871,80.7822 808.213,80.7972 808.555,80.8109 808.897,80.8234 809.239,80.8347 809.581,80.845 809.923,80.8541 810.265,80.8623 810.607,80.8694 810.949,80.8755 811.291,80.8807 811.633,80.885 811.975,80.8884 812.317,80.8909 812.659,80.8927 813.002,80.8936 813.344,80.8938 813.686,80.8933 814.028,80.8921 814.37,80.8902 814.712,80.8877 815.054,80.8846 815.396,80.8808 815.738,80.8766 816.08,80.8718 816.422,80.8664 816.764,80.8606 817.106,80.8544 817.448,80.8476 817.79,80.8405 818.132,80.833 818.474,80.8251 818.816,80.8169 819.158,80.8083 819.5,80.7994 819.842,80.7902 820.184,80.7808 820.527,80.7711 820.869,80.7612 821.211,80.751 821.553,80.7406 821.895,80.7301 822.237,80.7194 822.579,80.7085 822.921,80.6975 823.263,80.6864 823.605,80.6751 823.947,80.6638 824.289,80.6523 824.631,80.6408 824.973,80.6292 825.315,80.6176 825.657,80.606 825.999,80.5943 826.341,80.5826 826.683,80.5709 827.025,80.5592 827.367,80.5475 827.709,80.5358 828.051,80.5242 828.394,80.5126 828.736,80.501 829.078,80.4895 829.42,80.478 829.762,80.4667 830.104,80.4553 830.446,80.4441 830.788,80.433 831.13,80.4219 831.472,80.411 831.814,80.4001 832.156,80.3894 832.498,80.3787 832.84,80.3682 833.182,80.3578 833.524,80.3475 833.866,80.3374 834.208,80.3273 834.55,80.3174 834.892,80.3077 835.234,80.2981 835.576,80.2886 835.919,80.2792 836.261,80.27 836.603,80.261 836.945,80.2521 837.287,80.2433 837.629,80.2347 837.971,80.2262 838.313,80.2179 838.655,80.2098 838.997,80.2018 839.339,80.1939 839.681,80.1862 840.023,80.1787 840.365,80.1713 840.707,80.164 841.049,80.157 841.391,80.15 841.733,80.1433 842.075,80.1366 842.417,80.1301 842.759,80.1238 843.101,80.1176 843.444,80.1116 843.786,80.1057 844.128,80.1 844.47,80.0944 844.812,80.089 845.154,80.0837 845.496,80.0785 845.838,80.0735 846.18,80.0686 846.522,80.0638 846.864,80.0592 847.206,80.0548 847.548,80.0504 847.89,80.0462 848.232,80.0421 848.574,80.0382 848.916,80.0343 849.258,80.0306 849.6,80.027 849.942,80.0236 850.284,80.0202 850.626,80.017 850.968,80.0138 851.311,80.0108 851.653,80.0079 851.995,80.0051 852.337,80.0024 852.679,79.9999 853.021,79.9974 853.363,79.995 853.705,79.9927 854.047,79.9905 854.389,79.9884 854.731,79.9864 855.073,79.9845 855.415,79.9827 855.757,79.9809 856.099,80.3794 856.441,81.126 856.783,82.1745 857.125,83.4833 857.467,85.0158 857.809,86.7391 858.151,88.6243 858.493,90.6454 858.836,92.7797 859.178,95.0067 859.52,97.3087 859.862,99.6696 860.204,102.076 860.546,104.514 860.888,106.975 861.23,109.448 861.572,111.925 861.914,114.399 862.256,116.864 862.598,119.314 862.94,121.744 863.282,124.152 863.624,126.532 863.966,128.883 864.308,131.201 864.65,133.486 864.992,135.736 865.334,137.948 865.676,140.123 866.018,142.26 866.36,144.358 866.703,146.417 867.045,148.437 867.387,150.418 867.729,152.36 868.071,154.264 868.413,156.131 868.755,157.96 869.097,159.752 869.439,161.509 869.781,163.231 870.123,164.919 870.465,166.573 870.807,168.195 871.149,169.785 871.491,171.345 871.833,172.875 872.175,174.377 872.517,175.852 872.859,177.299 873.201,178.721 873.543,180.119 873.885,181.493 874.228,182.844 874.57,184.174 874.912,185.484 875.254,186.773 875.596,188.044 875.938,189.297 876.28,190.533 876.622,191.754 876.964,192.959 877.306,194.15 877.648,195.327 877.99,196.492 878.332,197.646 878.674,198.788 879.016,199.92 879.358,201.043 879.7,202.157 880.042,203.263 880.384,204.362 880.726,205.455 881.068,206.541 881.41,207.622 881.752,208.698 882.095,209.77 882.437,210.839 882.779,211.905 883.121,212.968 883.463,214.029 883.805,215.089 884.147,216.148 884.489,217.207 884.831,218.265 885.173,219.324 885.515,220.384 885.857,221.445 886.199,222.508 886.541,223.572 886.883,224.639 887.225,225.709 887.567,226.781 887.909,227.857 888.251,228.937 888.593,230.02 888.935,231.107 889.277,232.199 889.62,233.295 889.962,234.396 890.304,235.503 890.646,236.614 890.988,237.731 891.33,238.853 891.672,239.981 892.014,241.115 892.356,242.255 892.698,243.401 893.04,244.554 893.382,245.713 893.724,246.878 894.066,248.05 894.408,249.229 894.75,250.414 895.092,251.607 895.434,252.806 895.776,254.012 896.118,255.225 896.46,256.445 896.802,257.672 897.145,258.906 897.487,260.147 897.829,261.396 898.171,262.651 898.513,263.914 898.855,265.183 899.197,266.46 899.539,267.744 899.881,269.034 900.223,270.332 900.565,271.637 900.907,272.948 901.249,274.267 901.591,275.592 901.933,276.924 902.275,278.263 902.617,279.608 902.959,280.961 903.301,282.319 903.643,283.684 903.985,285.056 904.327,286.434 904.669,287.818 905.012,289.209 905.354,290.605 905.696,292.008 906.038,293.417 906.38,294.831 906.722,296.252 907.064,297.678 907.406,299.11 907.748,300.547 908.09,301.99 908.432,303.438 908.774,304.891 909.116,306.35 909.458,307.814 909.8,309.282 910.142,310.756 910.484,312.235 910.826,313.718 911.168,315.206 911.51,316.698 911.852,318.195 912.194,319.696 912.537,321.202 912.879,322.712 913.221,324.226 913.563,325.744 913.905,327.265 914.247,328.791 914.589,330.32 914.931,331.853 915.273,333.39 915.615,334.929 915.957,336.473 916.299,338.019 916.641,339.569 916.983,341.122 917.325,342.678 917.667,344.237 918.009,345.799 918.351,347.363 918.693,348.93 919.035,350.5 919.377,352.073 919.719,353.647 920.061,355.225 920.404,356.804 920.746,358.386 921.088,359.97 921.43,361.556 921.772,363.144 922.114,364.734 922.456,366.326 922.798,367.92 923.14,369.515 923.482,371.112 923.824,372.711 924.166,374.311 924.508,375.913 924.85,377.51 925.192,379.098 925.534,380.671 925.876,382.227 926.218,383.76 926.56,385.269 926.902,386.751 927.244,388.203 927.586,389.623 927.929,391.01 928.271,392.364 928.613,393.681 928.955,394.962 929.297,396.207 929.639,397.413 929.981,398.582 930.323,399.713 930.665,400.805 931.007,401.859 931.349,402.875 931.691,403.853 932.033,404.794 932.375,405.697 932.717,406.563 933.059,407.392 933.401,408.186 933.743,408.943 934.085,409.666 934.427,410.355 934.769,411.009 935.111,411.631 935.453,412.22 935.796,412.777 936.138,413.303 936.48,413.799 936.822,414.265 937.164,414.702 937.506,415.111 937.848,415.492 938.19,415.846 938.532,416.174 938.874,416.476 939.216,416.754 939.558,417.008 939.9,417.238 940.242,417.446 940.584,417.632 940.926,417.797 941.268,417.941 941.61,418.066 941.952,418.171 942.294,418.257 942.636,418.326 942.978,418.377 943.321,418.412 943.663,418.431 944.005,418.434 944.347,418.423 944.689,418.397 945.031,418.357 945.373,418.305 945.715,418.24 946.057,418.162 946.399,418.074 946.741,417.974 947.083,417.864 947.425,417.744 947.767,417.615 948.109,417.476 948.451,417.329 948.793,417.174 949.135,417.011 949.477,416.841 949.819,416.664 950.161,416.481 950.503,416.292 950.846,416.097 951.188,415.897 951.53,415.692 951.872,415.483 952.214,415.269 952.556,415.051 952.898,414.831 953.24,414.606 953.582,414.379 953.924,414.15 954.266,413.918 954.608,413.684 954.95,413.448 955.292,413.211 955.634,412.972 955.976,412.733 956.318,412.492 956.66,412.251 957.002,412.01 957.344,411.769 957.686,411.528 958.028,411.286 958.37,411.046 958.713,410.806 959.055,410.566 959.397,410.328 959.739,410.091 960.081,409.855 960.423,409.62 960.765,409.387 961.107,409.156 961.449,408.926 961.791,408.698 962.133,408.472 962.475,408.249 962.817,408.027 963.159,407.808 963.501,407.591 963.843,407.376 964.185,407.164 964.527,406.955 964.869,406.748 965.211,406.544 965.553,406.343 965.895,406.145 966.238,405.949 966.58,405.757 966.922,405.567 967.264,405.38 967.606,405.197 967.948,405.016 968.29,404.839 968.632,404.664 968.974,404.493 969.316,404.325 969.658,404.16 970,403.998 " />
<line x1="760" y1="60" x2="790" y2="60" stroke="#d95f02" stroke-width="3" />
<text x="800" y="65" font-family="Arial" font-size="13">Reference</text>
<line x1="760" y1="82" x2="790" y2="82" stroke="#1b70c9" stroke-width="3" />
<text x="800" y="87" font-family="Arial" font-size="13">Elbow angle</text>
</svg>
